<?xml version="1.0" ?><!-- Uploaded to: SVG Repo, www.svgrepo.com, Generator: SVG Repo Mixer Tools -->
<svg width="800px" height="800px" viewBox="0 0 32 32" id="OBJECT" xmlns="http://www.w3.org/2000/svg"><defs><style>.cls-1{fill:#b2b2b2;}</style></defs><title/><path d="M30.87,26l-10-17.32a1,1,0,0,0-.61-.47,1,1,0,0,0-.76.1l-6.06,3.5a1,1,0,0,0-.37,1.37l10,17.32a1,1,0,0,0,.87.5h0a1,1,0,0,0,.86-.5l1.74-3,3.46,0a1,1,0,0,0,.87-.5A1,1,0,0,0,30.87,26Z"/><path d="M18.56,11.81,12.5,8.31a1.05,1.05,0,0,0-.76-.1,1,1,0,0,0-.61.47L1.13,26a1,1,0,0,0,0,1,1,1,0,0,0,.87.5l3.46,0,1.74,3a1,1,0,0,0,.86.5h0a1,1,0,0,0,.87-.5l10-17.32A1,1,0,0,0,18.56,11.81Z"/><circle class="cls-1" cx="16" cy="13" r="12"/><path d="M23,10.33a1,1,0,0,0-.8-.68l-3.63-.53L16.9,5.81a1,1,0,0,0-1.8,0L13.48,9.12l-3.63.53a1,1,0,0,0-.55,1.71l2.63,2.58-.62,3.64a1,1,0,0,0,.4,1,1,1,0,0,0,1,.07L16,16.92l3.24,1.71a1,1,0,0,0,.47.12,1,1,0,0,0,.58-.19,1,1,0,0,0,.4-1l-.62-3.64,2.63-2.58A1,1,0,0,0,23,10.33Z"/></svg>